<svg xmlns="http://www.w3.org/2000/svg" width="674" height="637.826"><defs><clipPath id="a"><path data-name="Rectangle 136" fill="none" d="M0 0h674v637.826H0z"/></clipPath><clipPath id="b"><path data-name="Rectangle 135" fill="none" d="M0 0h459.721v213.511H0z"/></clipPath><clipPath id="c"><path data-name="Rectangle 137" fill="none" d="M0 0h112.094v92.905H0z"/></clipPath><clipPath id="d"><path data-name="Path 1955" d="m201.111 232.83 5.642 26.1 43.364 11.27 64.033 36.968 87.116-50.3 31.334-37.649-89.739-41.7z" transform="translate(-201.111 -177.519)" fill="none"/></clipPath><clipPath id="e"><path data-name="Path 2019" d="m215.9 354.6 62.231 35.926 83.785-48.747-62.22-35.926z" transform="translate(-215.898 -305.854)" fill="none"/></clipPath></defs><path data-name="Path 1818" d="m383.48 503.879-33.683 49.537-57.19-12.969 33.687-49.531z" fill="#f4f4f4"/><g data-name="Group 688"><g data-name="Group 687" clip-path="url(#a)"><g data-name="Group 686" opacity=".5"><g data-name="Group 685"><g data-name="Group 684" clip-path="url(#b)" transform="translate(0 333.554)"><path data-name="Path 1819" d="M459.722 113.285 427.3 0H209.44l-77.158 44.547h-24L0 107.065l87.932 50.767h159.895l-26.637 15.38 69.8 40.3h147.25l10.539-100.226zm-158.027 13.447-3.848-13.448h27.14z" fill="#ccc"/></g></g></g></g></g><path data-name="Path 1820" d="m459.721 446.839-89.407-51.619V56.347l89.407 51.622z" fill="#d3c4e0"/><path data-name="Path 1821" d="m555.597 391.485-95.876 55.354V107.965l95.876-55.354z" fill="#59419a"/><path data-name="Path 1822" d="m370.314 56.347 89.407 51.619 95.876-55.355L466.19.993z" fill="#d3c4e0"/><path data-name="Path 1823" d="m467.472 421.617-4.224-2.438v-56.468l4.224 2.438z" fill="#d3c4e0"/><path data-name="Path 1824" d="m557.276 369.768-89.8 51.849v-56.468l89.8-51.849z" fill="#59419a"/><path data-name="Path 1825" d="m467.472 365.148-4.224-2.438 89.8-51.849 4.224 2.44z" fill="#d3c4e0"/><path data-name="Path 1826" d="m467.472 360.822-4.224-2.438v-56.468l4.224 2.438z" fill="#d3c4e0"/><path data-name="Path 1827" d="m557.276 308.974-89.8 51.848v-56.466l89.8-51.849z" fill="#59419a"/><path data-name="Path 1828" d="m467.472 304.354-4.224-2.438 89.8-51.849 4.224 2.438z" fill="#d3c4e0"/><g data-name="Group 693"><g data-name="Group 692" clip-path="url(#a)"><path data-name="Path 1829" d="m525.086 284.691-26.185 15.12c-1.784 1.03-3.231.42-3.231-1.364a6.7 6.7 0 0 1 3.231-5.1l26.185-15.12c1.784-1.029 3.231-.418 3.231 1.366a6.7 6.7 0 0 1-3.231 5.1" fill="#d3c4e0"/><path data-name="Path 1830" d="M516.133 299.261a5.059 5.059 0 0 1-2.438 3.846c-1.346.778-2.438.316-2.438-1.03a5.059 5.059 0 0 1 2.438-3.846c1.346-.778 2.438-.316 2.438 1.03" fill="#d3c4e0"/><path data-name="Path 1831" d="m525.086 345.396-26.185 15.118c-1.784 1.03-3.231.42-3.231-1.366a6.7 6.7 0 0 1 3.231-5.094l26.185-15.12c1.784-1.027 3.231-.416 3.231 1.366a6.7 6.7 0 0 1-3.231 5.1" fill="#d3c4e0"/><path data-name="Path 1832" d="M516.133 359.966a5.059 5.059 0 0 1-2.438 3.846c-1.346.778-2.438.316-2.438-1.03a5.059 5.059 0 0 1 2.438-3.846c1.346-.778 2.438-.316 2.438 1.03" fill="#d3c4e0"/><path data-name="Path 1833" d="m467.472 300.806-4.224-2.438v-56.472l4.224 2.438z" fill="#d3c4e0"/><path data-name="Path 1834" d="m557.276 248.957-89.8 51.848v-56.467l89.8-51.849z" fill="#59419a"/><path data-name="Path 1835" d="m467.472 244.338-4.224-2.438 89.8-51.849 4.224 2.438z" fill="#d3c4e0"/><path data-name="Path 1836" d="m525.086 224.585-26.185 15.119c-1.784 1.03-3.231.42-3.231-1.367a6.694 6.694 0 0 1 3.231-5.092l26.185-15.12c1.784-1.029 3.231-.418 3.231 1.366a6.7 6.7 0 0 1-3.231 5.094" fill="#d3c4e0"/><path data-name="Path 1837" d="M516.133 239.155a5.059 5.059 0 0 1-2.439 3.851c-1.346.778-2.438.316-2.438-1.03a5.059 5.059 0 0 1 2.438-3.846c1.346-.778 2.438-.316 2.438 1.03" fill="#d3c4e0"/><path data-name="Path 1838" d="m467.472 179.857-4.224-2.438v-56.468l4.224 2.438z" fill="#d3c4e0"/><path data-name="Path 1839" d="m557.276 128.009-89.8 51.848V123.39l89.8-51.849z" fill="#59419a"/><path data-name="Path 1840" d="m467.472 123.389-4.224-2.438 89.8-51.849 4.224 2.44z" fill="#d3c4e0"/><path data-name="Path 1841" d="m525.086 103.637-26.185 15.117c-1.784 1.03-3.231.42-3.231-1.366a6.7 6.7 0 0 1 3.231-5.094l26.185-15.12c1.784-1.029 3.231-.418 3.231 1.366a6.7 6.7 0 0 1-3.231 5.1" fill="#d3c4e0"/><path data-name="Path 1842" d="M516.133 118.209a5.059 5.059 0 0 1-2.438 3.846c-1.346.778-2.438.316-2.438-1.03a5.059 5.059 0 0 1 2.438-3.846c1.346-.778 2.438-.316 2.438 1.03" fill="#d3c4e0"/><g data-name="Group 691" opacity=".5"><g data-name="Group 690"><g data-name="Group 689" clip-path="url(#c)" transform="translate(299.77 544.921)"><path data-name="Path 1843" d="M91.116 0-.002 52.606l69.8 40.3h42.3z" fill="#ccc"/></g></g></g><path data-name="Path 1844" d="m487.241 514.043-65.17 37.625-43.442-25.08 65.17-37.625z" fill="#d3c4e0"/><path data-name="Path 1845" d="m292.608 540.447 29.191 6.617h32.309l29.369-43.184-57.182-12.964z" fill="#cdddf0"/><path data-name="Path 1846" d="m261.904 485.36 82.817-23.352 26.96 31.874-82.817 23.35z" fill="#cdddf0"/><path data-name="Path 1847" d="m619.1 485.294-41.953 47.381-54.7-16.147 41.953-47.379z" fill="#f4f4f4"/><path data-name="Path 1848" d="m549.883 602.887-23.854-51.4 59.341-9.182 23.856 51.4z" fill="#f4f4f4"/><path data-name="Path 1849" d="m410.61 601.632 76.716-29.492 34.05 29.523-76.714 29.494z" fill="#f4f4f4"/><path data-name="Path 1850" d="m509.235 448.963-91.116 52.606 69.8 40.3h42.3z" fill="#d3c4e0"/><path data-name="Path 1851" d="m310.595 491.387-89.407-51.619V100.895l89.407 51.619z" fill="#d3c4e0"/><path data-name="Path 1852" d="m406.47 436.032-95.879 55.354V152.513l95.876-55.354z" fill="#59419a"/><path data-name="Path 1853" d="m310.595 152.514-89.407-51.619 95.88-55.353 89.4 51.619z" fill="#d3c4e0"/><path data-name="Path 1854" d="m318.341 466.165-4.224-2.438v-56.469l4.224 2.435z" fill="#d3c4e0"/><path data-name="Path 1855" d="m408.149 414.316-89.8 51.848v-56.467l89.8-51.849z" fill="#59419a"/><path data-name="Path 1856" d="m318.341 409.697-4.224-2.438 89.8-51.849 4.224 2.44z" fill="#d3c4e0"/><path data-name="Path 1857" d="m318.341 405.371-4.224-2.438v-56.469l4.224 2.438z" fill="#d3c4e0"/><path data-name="Path 1858" d="m408.149 353.522-89.8 51.848v-56.469l89.8-51.848z" fill="#59419a"/><path data-name="Path 1859" d="m318.341 348.903-4.224-2.438 89.8-51.849 4.224 2.44z" fill="#d3c4e0"/><path data-name="Path 1860" d="m375.959 329.24-26.185 15.118c-1.784 1.03-3.231.42-3.231-1.366a6.7 6.7 0 0 1 3.231-5.094l26.185-15.12c1.784-1.029 3.231-.418 3.231 1.366a6.7 6.7 0 0 1-3.231 5.1" fill="#d3c4e0"/><path data-name="Path 1861" d="M367.006 343.808a5.059 5.059 0 0 1-2.438 3.846c-1.346.778-2.438.316-2.438-1.03a5.059 5.059 0 0 1 2.438-3.846c1.346-.778 2.438-.316 2.438 1.03" fill="#d3c4e0"/><path data-name="Path 1862" d="m375.959 389.945-26.185 15.118c-1.784 1.03-3.231.42-3.231-1.366a6.7 6.7 0 0 1 3.231-5.096l26.185-15.12c1.784-1.029 3.231-.418 3.231 1.366a6.7 6.7 0 0 1-3.231 5.1" fill="#d3c4e0"/><path data-name="Path 1863" d="M367.006 404.513a5.059 5.059 0 0 1-2.438 3.848c-1.346.776-2.438.314-2.438-1.03a5.059 5.059 0 0 1 2.438-3.846c1.346-.779 2.438-.318 2.438 1.029" fill="#d3c4e0"/><path data-name="Path 1864" d="m318.341 345.354-4.224-2.438v-56.468l4.224 2.438z" fill="#d3c4e0"/><path data-name="Path 1865" d="m408.149 293.506-89.8 51.848v-56.467l89.8-51.849z" fill="#59419a"/><path data-name="Path 1866" d="m318.341 288.886-4.224-2.438 89.8-51.849 4.224 2.44z" fill="#d3c4e0"/><path data-name="Path 1867" d="m318.341 284.56-4.224-2.438v-56.469l4.224 2.438z" fill="#d3c4e0"/><path data-name="Path 1868" d="m408.149 232.712-89.8 51.848v-56.469l89.8-51.848z" fill="#59419a"/><path data-name="Path 1869" d="m318.341 228.092-4.224-2.438 89.8-51.849 4.224 2.44z" fill="#d3c4e0"/><path data-name="Path 1870" d="m375.959 208.429-26.185 15.118c-1.784 1.03-3.231.42-3.231-1.366a6.7 6.7 0 0 1 3.231-5.094l26.185-15.12c1.784-1.029 3.231-.418 3.231 1.366a6.7 6.7 0 0 1-3.231 5.1" fill="#d3c4e0"/><path data-name="Path 1871" d="M367.006 222.997a5.059 5.059 0 0 1-2.438 3.846c-1.346.778-2.438.316-2.438-1.03a5.059 5.059 0 0 1 2.438-3.846c1.346-.778 2.438-.316 2.438 1.03" fill="#d3c4e0"/><path data-name="Path 1872" d="m375.959 269.134-26.185 15.122c-1.784 1.03-3.231.42-3.231-1.366a6.7 6.7 0 0 1 3.231-5.094l26.185-15.12c1.784-1.029 3.231-.418 3.231 1.366a6.7 6.7 0 0 1-3.231 5.1" fill="#d3c4e0"/><path data-name="Path 1873" d="M367.006 283.702a5.059 5.059 0 0 1-2.438 3.846c-1.346.778-2.438.316-2.438-1.03a5.059 5.059 0 0 1 2.438-3.846c1.346-.778 2.438-.316 2.438 1.03" fill="#d3c4e0"/><path data-name="Path 1874" d="m318.341 224.406-4.224-2.438v-56.469l4.224 2.438z" fill="#d3c4e0"/><path data-name="Path 1875" d="m408.149 172.557-89.8 51.849v-56.469l89.8-51.849z" fill="#59419a"/><path data-name="Path 1876" d="m318.341 167.938-4.22-2.434 89.8-51.849 4.224 2.44z" fill="#d3c4e0"/><path data-name="Path 1877" d="m375.959 148.186-26.185 15.118c-1.784 1.03-3.231.42-3.231-1.366a6.7 6.7 0 0 1 3.231-5.094l26.185-15.12c1.784-1.029 3.231-.418 3.231 1.366a6.7 6.7 0 0 1-3.231 5.1" fill="#d3c4e0"/><path data-name="Path 1878" d="M367.006 162.754a5.059 5.059 0 0 1-2.438 3.846c-1.346.778-2.438.316-2.438-1.03a5.059 5.059 0 0 1 2.438-3.846c1.346-.778 2.438-.316 2.438 1.03" fill="#d3c4e0"/><path data-name="Path 1879" d="m547.626 182.885-81.695 47.167v-47.768l81.695-47.163z" fill="#d3c4e0"/><path data-name="Path 1880" d="m654.075 255.192-110.051-63.534v-43.293l110.051 63.537z" fill="#d3c4e0"/><path data-name="Path 1881" d="m657.662 253.12-3.587 2.072v-43.289l3.587-2.072z" fill="#d3c4e0"/><path data-name="Path 1882" d="m654.075 211.899-110.051-63.533 3.589-2.072 110.049 63.537z" fill="#d3c4e0"/><path data-name="Path 1883" d="m543.177 194.752-60.685 35.036v-80.536l60.685-35.032z" fill="#f4f4f4"/><path data-name="Path 1884" d="m543.177 194.752-60.685 35.036v-46.363l60.684-35.036z" fill="#59419a"/><path data-name="Path 1885" d="m543.199 117.095-60.684 35.036V139.11l60.684-35.037z" fill="#fdca40"/><path data-name="Path 1886" d="m566.66 208.31-60.679 35.036V162.81l60.684-35.036z" fill="#f4f4f4"/><path data-name="Path 1887" d="m566.66 208.31-60.679 35.036v-46.363l60.684-35.036z" fill="#59419a"/><path data-name="Path 1888" d="m566.679 130.652-60.684 35.036v-13.021l60.684-35.04z" fill="#fdca40"/><path data-name="Path 1889" d="M590.143 221.868 529.459 256.9v-80.532l60.684-35.036z" fill="#f4f4f4"/><path data-name="Path 1890" d="m590.143 221.868-60.684 35.036v-46.363l60.684-35.036z" fill="#59419a"/><path data-name="Path 1891" d="m590.161 144.21-60.684 35.036v-13.023l60.684-35.035z" fill="#fdca40"/><path data-name="Path 1892" d="m613.626 235.425-60.684 35.036v-80.536l60.684-35.036z" fill="#f4f4f4"/><path data-name="Path 1893" d="m613.626 235.425-60.684 35.036v-46.363l60.684-35.037z" fill="#59419a"/><path data-name="Path 1894" d="m613.645 157.768-60.685 35.039v-13.026l60.685-35.034z" fill="#fdca40"/><path data-name="Path 1895" d="m637.108 248.979-60.684 35.04v-80.54l60.684-35.036z" fill="#f4f4f4"/><path data-name="Path 1896" d="m637.108 248.983-60.684 35.036v-46.358l60.684-35.035z" fill="#59419a"/><path data-name="Path 1897" d="m637.126 171.326-60.684 35.036v-13.021l60.684-35.036z" fill="#fdca40"/><path data-name="Path 1898" d="m575.982 300.283-110.051-63.538v-43.294l110.051 63.539z" fill="#d3c4e0"/><path data-name="Path 1899" d="m579.569 298.211-3.591 2.068V256.99l3.587-2.072z" fill="#d3c4e0"/><path data-name="Path 1900" d="m575.982 256.99-110.051-63.537 3.589-2.072 110.049 63.539z" fill="#d3c4e0"/><path data-name="Path 1901" d="m578.806 301.914-4.224-2.438v-56.469l4.224 2.438z" fill="#d3c4e0"/><path data-name="Path 1902" d="m668.61 250.065-89.8 51.848v-56.469l89.8-51.848z" fill="#59419a"/><path data-name="Path 1903" d="m578.806 245.446-4.224-2.438 89.8-51.849 4.224 2.44z" fill="#d3c4e0"/><path data-name="Path 1904" d="m637.231 224.997-26.185 15.118c-1.784 1.03-3.231.42-3.231-1.364a6.7 6.7 0 0 1 3.231-5.1l26.185-15.12c1.784-1.029 3.231-.418 3.231 1.366a6.7 6.7 0 0 1-3.231 5.1" fill="#d3c4e0"/><path data-name="Path 1905" d="M628.279 239.564a5.059 5.059 0 0 1-2.438 3.848c-1.346.776-2.438.314-2.438-1.03a5.059 5.059 0 0 1 2.438-3.846c1.346-.779 2.438-.316 2.438 1.029" fill="#d3c4e0"/><path data-name="Path 1906" d="m536.936 425.81-.178 62.923-99.026 57.6.178-62.923z" fill="#59419a"/><path data-name="Path 1907" d="m437.909 483.408-.178 62.923-71.921-41.524.178-62.923z" fill="#d3c4e0"/><path data-name="Path 1908" d="m536.936 425.811-99.026 57.6-71.923-41.524 99.027-57.6z" fill="#d3c4e0"/><path data-name="Path 1909" d="m494.887 401.42-99.528 57.463v14.687l8.329 4.81v-14.808l99.424-57.4z" fill="#fdca40"/><path data-name="Path 1910" d="M444.524 485.606a2.331 2.331 0 0 1-1.745 1.474c-.611 0-.82-.659-.468-1.474a2.331 2.331 0 0 1 1.745-1.474c.612 0 .821.659.468 1.474" fill="#fdca40"/><path data-name="Path 1911" d="M449.142 482.939a2.331 2.331 0 0 1-1.745 1.474c-.611 0-.82-.659-.468-1.474a2.331 2.331 0 0 1 1.745-1.474c.612 0 .821.659.468 1.474" fill="#fdca40"/><path data-name="Path 1912" d="M453.761 480.278a2.331 2.331 0 0 1-1.745 1.474c-.611 0-.82-.659-.468-1.474a2.331 2.331 0 0 1 1.745-1.474c.612 0 .821.659.468 1.474" fill="#fdca40"/><path data-name="Path 1913" d="m438.873 475.172-65.783-37.98v-56.9l65.783 37.98z" fill="#d3c4e0"/><path data-name="Path 1914" d="m527.736 423.871-88.862 51.3v-56.9l88.862-51.3z" fill="#59419a"/><path data-name="Path 1915" d="m438.873 418.275-65.783-37.98 88.862-51.3 65.783 37.98z" fill="#d3c4e0"/><path data-name="Path 1916" d="m374.842 380.297 87.088-50.282 64.06 36.953-87.116 50.3z" fill="#59419a"/><path data-name="Path 1917" d="M461.931 330.015v73.96l64.059-37.008z" fill="#d3c4e0"/><path data-name="Path 1918" d="m527.657 367.016-65.794-37.987 21.795-23.807 65.794 37.987z" fill="#cfe8f8"/><path data-name="Path 1919" d="m438.873 418.274-65.794-37.987-28.953 5.232 65.8 37.987z" fill="#d3c4e0"/><path data-name="Path 1920" d="m373.22 380.282 88.775-51.255-21.639-22.193-88.776 51.253z" fill="#d3c4e0"/><path data-name="Path 1921" d="m438.889 418.196 88.775-51.255 29.661 7.054-88.773 51.255z" fill="#d3c4e0"/></g></g><g data-name="Group 695"><g data-name="Group 694" clip-path="url(#d)" transform="translate(325.837 287.614)"><path data-name="Path 1922" d="m95.707 127.039 34.341-26.338 63.516 27.606-34.34 26.338z" fill="#f4f4f4"/><path data-name="Path 1923" d="m95.914 122.093 41.81-22.452 54.145 33.611-41.81 22.453z" fill="#f4f4f4"/><path data-name="Path 1924" d="M151.356 152.292 96.192 120.82v-10.643l55.164 31.472z" fill="#cdddf0"/><path data-name="Path 1925" d="m189.971 129.224-38.615 23.068v-10.643l38.616-23.068z" fill="#dcecfe"/><path data-name="Path 1926" d="M150.143 141.649 95.63 110.177l39.955-23.068 54.51 31.472z" fill="#f4f4f4"/><path data-name="Path 1927" d="m98.342 108.135 41.81-22.452 54.145 33.611-41.81 22.453z" fill="#f4f4f4"/><path data-name="Path 1928" d="M152.555 140.262 97.391 108.79v-7.315l55.164 31.472z" fill="#cdddf0"/><path data-name="Path 1929" d="m189.971 117.196-38.615 23.068v-7.315l38.616-23.068z" fill="#dcecfe"/><path data-name="Path 1930" d="M151.903 132.949 97.39 101.477l39.955-23.068 54.511 31.472z" fill="#f4f4f4"/><path data-name="Path 1931" d="M145.84 131.235 96.193 99.763V89.12l49.647 31.475z" fill="#cdddf0"/><path data-name="Path 1932" d="m189.971 108.167-44.132 23.068v-10.643l44.132-23.068z" fill="#dcecfe"/><path data-name="Path 1933" d="M148.001 120.592 93.488 89.12l39.955-23.068 54.511 31.472z" fill="#f4f4f4"/><path data-name="Path 1934" d="m96.658 86.592 41.81-22.453 54.145 33.611-41.81 22.453z" fill="#f4f4f4"/><path data-name="Path 1935" d="M151.356 119.701 96.192 88.229v-8.647l55.164 31.474z" fill="#cdddf0"/><path data-name="Path 1936" d="m189.971 96.633-38.615 23.069v-8.647l38.616-23.067z" fill="#dcecfe"/><path data-name="Path 1937" d="M150.143 111.055 95.63 79.583l39.956-23.069 54.509 31.473z" fill="#f4f4f4"/><path data-name="Path 1938" d="m97.03 73.88 47.452-18.337L188.7 93.689l-47.454 18.336z" fill="#f4f4f4"/><path data-name="Path 1939" d="M151.823 111.333 96.659 79.861v-7.31l55.164 31.472z" fill="#cdddf0"/><path data-name="Path 1940" d="m191.126 88.268-39.77 23.066v-7.315l39.77-23.069z" fill="#dcecfe"/><path data-name="Path 1941" d="M151.17 104.02 96.657 72.548l39.955-23.068 54.511 31.472z" fill="#f4f4f4"/><path data-name="Path 1942" d="m52.865 151.773 34.341-26.338 63.519 27.607-34.341 26.338z" fill="#f4f4f4"/><path data-name="Path 1943" d="m53.072 146.828 41.81-22.452 54.145 33.614-41.81 22.453z" fill="#f4f4f4"/><path data-name="Path 1944" d="m108.511 177.023-55.16-31.469v-10.643l55.16 31.472z" fill="#cdddf0"/><path data-name="Path 1945" d="m147.127 153.959-38.615 23.068v-10.643l38.615-23.068z" fill="#dcecfe"/><path data-name="Path 1946" d="m107.302 166.384-54.513-31.472 39.955-23.068 54.511 31.472z" fill="#f4f4f4"/><path data-name="Path 1947" d="m55.5 132.869 41.81-22.453 54.145 33.611-41.81 22.453z" fill="#f4f4f4"/><path data-name="Path 1948" d="M109.714 164.992 54.55 133.524v-7.315l55.164 31.472z" fill="#cdddf0"/><path data-name="Path 1949" d="m147.127 141.931-38.615 23.068v-7.315l38.615-23.069z" fill="#dcecfe"/><path data-name="Path 1950" d="m109.061 157.684-54.513-31.472 39.955-23.068 54.511 31.472z" fill="#f4f4f4"/><path data-name="Path 1951" d="m102.998 155.969-49.649-31.472v-10.643l49.649 31.472z" fill="#cdddf0"/><path data-name="Path 1952" d="m147.13 132.902-44.133 23.068v-10.643l44.132-23.068z" fill="#dcecfe"/><path data-name="Path 1953" d="m105.16 145.327-54.513-31.472 39.955-23.068 54.513 31.472z" fill="#f4f4f4"/><path data-name="Path 1954" d="m53.816 111.327 41.81-22.453 54.145 33.611-41.81 22.453z" fill="#f4f4f4"/></g></g><g data-name="Group 697"><g data-name="Group 696" clip-path="url(#a)"><path data-name="Path 1956" d="m530.22 541.967 52.564-30.348v-10.262l-52.564 30.348z" fill="#dcecfe"/><path data-name="Path 1957" d="m491.694 519.724 38.526 22.243v-10.262l-38.526-22.243z" fill="#cdddf0"/><path data-name="Path 1958" d="m530.22 531.705 52.564-30.348-38.526-22.242-52.564 30.347z" fill="#f4f4f4"/><path data-name="Path 1959" d="m580.169 499.388-40.315-21.649-52.209 32.409 40.319 21.649z" fill="#f4f4f4"/><path data-name="Path 1960" d="m527.634 532.161 52.564-30.348v-7.053l-52.564 30.348z" fill="#dcecfe"/><path data-name="Path 1961" d="m489.108 509.918 38.526 22.243v-7.054l-38.526-22.242z" fill="#cdddf0"/><path data-name="Path 1962" d="m527.634 525.108 52.564-30.348-38.526-22.242-52.564 30.346z" fill="#f4f4f4"/><path data-name="Path 1963" d="m526.966 526.977 52.564-30.348v-10.252l-52.564 30.346z" fill="#dcecfe"/><path data-name="Path 1964" d="m488.44 504.739 38.528 22.24V516.72l-38.528-22.241z" fill="#cdddf0"/><path data-name="Path 1965" d="m526.968 516.72 52.564-30.348-38.526-22.242-52.564 30.346z" fill="#f4f4f4"/><path data-name="Path 1966" d="m580.247 487.232-40.317-21.649-52.207 32.409 40.315 21.649z" fill="#f4f4f4"/><path data-name="Path 1967" d="m526.245 516.488 52.564-30.348v-8.336l-52.564 30.346z" fill="#dcecfe"/><path data-name="Path 1968" d="m487.719 494.244 38.526 22.243v-8.337l-38.526-22.242z" fill="#cdddf0"/><path data-name="Path 1969" d="m526.245 508.151 52.564-30.348-38.527-22.242-52.564 30.346z" fill="#f4f4f4"/><path data-name="Path 1970" d="m527.634 507.259 52.564-30.348v-3.224l-52.564 30.346z" fill="#dcecfe"/><path data-name="Path 1971" d="m489.108 485.017 38.526 22.244v-3.226l-38.526-22.243z" fill="#cdddf0"/><path data-name="Path 1972" d="m527.634 504.034 52.564-30.348-38.526-22.242-52.564 30.346z" fill="#f4f4f4"/><path data-name="Path 1973" d="m529.964 501.9 52.564-30.348v-8.339l-52.564 30.35z" fill="#dcecfe"/><path data-name="Path 1974" d="m491.439 479.658 38.526 22.244v-8.337l-38.526-22.244z" fill="#cdddf0"/><path data-name="Path 1975" d="m529.965 493.564 52.564-30.348-38.526-22.242-52.564 30.346z" fill="#f4f4f4"/><path data-name="Path 1976" d="m433.597 494.435 28.624 2.89 63.043 36.99-28.624-2.892z" fill="#d3c4e0"/><path data-name="Path 1977" d="m433.486 494.378-25.626 2.391-85.262 49.817 25.628-2.391z" fill="#59419a"/><path data-name="Path 1978" d="m497.994 531.46-.16 56.35-85.97 50.017.16-56.352z" fill="#59419a"/><path data-name="Path 1979" d="m412.023 581.476-.16 56.35-64.407-37.186.159-56.35z" fill="#d3c4e0"/><path data-name="Path 1980" d="m497.994 531.46-85.97 50.015-64.409-37.185 85.97-50.017z" fill="#d3c4e0"/><path data-name="Path 1981" d="m349.797 544.286 83.8-48.746 62.22 35.926-83.785 48.747z" fill="#59419a"/><path data-name="Path 1982" d="M433.591 551.92v-56.38l62.22 35.926-83.785 48.746z" fill="#d3c4e0"/><path data-name="Path 1983" d="m493.589 556.102-26.668 15.4v-16.957l26.668-15.4z" fill="#e5e5e5"/><path data-name="Path 1984" d="m445.97 597.046-26.1 15.066v-2.284l26.1-15.068zm-3.62 4.6-18.858 10.891v.878l18.859-10.888zm0 2.856-18.858 10.891v.88l18.859-10.888zm0 2.858-18.858 10.891v.88l18.859-10.889zm0 2.856-18.858 10.893v.878l18.859-10.888zm0 2.858-18.858 10.892v.88l18.859-10.888z" fill="#d3c4e0"/><path data-name="Path 1985" d="m489.879 543.757-18.857 10.886v.878l18.857-10.888zm0 2.856-18.857 10.888v.88l18.857-10.888zm0 2.858-18.857 10.888v.88l18.857-10.889zm0 2.856-18.857 10.888v.88l18.857-10.888zm0 2.858-18.857 10.888v.88l18.857-10.889z" fill="#d3c4e0"/><path data-name="Path 1986" d="m519.96 563.715-21.966-32.256-85.972 50.017 21.968 32.259z" fill="#d3c4e0"/><path data-name="Path 1987" d="m325.732 576.535 21.966-32.255 64.427 37.2-21.968 32.255z" fill="#59419a"/><path data-name="Path 1988" d="m398.466 572.384 13.559 7.829 35.121-20.466-13.556-7.827z" fill="#d3c4e0"/></g></g><g data-name="Group 699"><g data-name="Group 698" clip-path="url(#e)" transform="translate(349.795 495.54)"><path data-name="Path 1989" d="m39.49 69.526 34.341-26.338 63.516 27.606-34.341 26.338z" fill="#f4f4f4"/><path data-name="Path 1990" d="m39.697 64.58 41.81-22.453 54.145 33.611-41.81 22.453z" fill="#f4f4f4"/><path data-name="Path 1991" d="M95.139 94.779 39.975 63.305V52.664l55.164 31.472z" fill="#cdddf0"/><path data-name="Path 1992" d="M133.754 71.711 95.139 94.779V84.137l38.615-23.068z" fill="#dcecfe"/><path data-name="Path 1993" d="M93.926 84.137 39.413 52.665l39.955-23.068 54.513 31.472z" fill="#f4f4f4"/><path data-name="Path 1994" d="m42.127 50.622 41.811-22.453 54.145 33.611L96.27 84.229z" fill="#f4f4f4"/><path data-name="Path 1995" d="M96.338 82.749 41.174 51.274v-7.315l55.164 31.472z" fill="#cdddf0"/><path data-name="Path 1996" d="M133.754 59.683 95.139 82.751v-7.315l38.615-23.068z" fill="#dcecfe"/><path data-name="Path 1997" d="M95.685 75.436 41.172 43.964l39.955-23.068 54.511 31.472z" fill="#f4f4f4"/><path data-name="Path 1998" d="M89.622 73.722 39.973 42.245V31.607l49.649 31.472z" fill="#cdddf0"/><path data-name="Path 1999" d="M133.754 50.654 89.622 73.722V63.079l44.132-23.068z" fill="#dcecfe"/><path data-name="Path 2000" d="M91.784 63.08 37.269 31.607 77.224 8.539l54.516 31.476z" fill="#f4f4f4"/><path data-name="Path 2001" d="M42.01 26.988 83.82 4.535l54.145 33.611-41.81 22.453z" fill="#f4f4f4"/><path data-name="Path 2002" d="m-5.493 110.659 34.341-26.336 63.516 27.6-34.341 26.338z" fill="#f4f4f4"/><path data-name="Path 2003" d="m-5.286 105.717 41.81-22.452 54.145 33.611-41.81 22.453z" fill="#f4f4f4"/><path data-name="Path 2004" d="M50.156 135.912-5.008 104.44V93.797l55.164 31.472z" fill="#cdddf0"/><path data-name="Path 2005" d="m88.771 112.846-38.615 23.068v-10.646L88.771 102.2z" fill="#dcecfe"/><path data-name="Path 2006" d="M48.943 125.271-5.57 93.799l39.955-23.068 54.513 31.472z" fill="#f4f4f4"/><path data-name="Path 2007" d="m-2.858 91.755 41.81-22.452 54.145 33.611-41.81 22.453z" fill="#f4f4f4"/><path data-name="Path 2008" d="M51.355 123.882-3.809 92.41v-7.315l55.164 31.472z" fill="#cdddf0"/><path data-name="Path 2009" d="m88.771 100.816-38.615 23.068v-7.315l38.615-23.068z" fill="#dcecfe"/><path data-name="Path 2010" d="M50.703 116.57-3.81 85.098l39.954-23.069 54.511 31.472z" fill="#f4f4f4"/><path data-name="Path 2011" d="M44.64 114.855-5.009 83.383V72.74l49.649 31.472z" fill="#cdddf0"/><path data-name="Path 2012" d="m88.771 91.788-44.132 23.068v-10.643l44.132-23.068z" fill="#dcecfe"/><path data-name="Path 2013" d="M46.801 104.213-7.712 72.741l39.955-23.068 54.513 31.472z" fill="#f4f4f4"/><path data-name="Path 2014" d="m-4.542 70.213 41.81-22.453 54.145 33.611-41.81 22.457z" fill="#f4f4f4"/><path data-name="Path 2015" d="M50.156 103.321-5.008 71.849v-8.647l55.164 31.474z" fill="#cdddf0"/><path data-name="Path 2016" d="m88.771 80.257-38.615 23.068v-8.647l38.615-23.067z" fill="#dcecfe"/><path data-name="Path 2017" d="M48.943 94.675-5.57 63.203l39.955-23.068 54.514 31.474z" fill="#f4f4f4"/><path data-name="Path 2018" d="M-4.172 57.501 43.28 39.165l44.225 38.146-47.454 18.336z" fill="#f4f4f4"/></g></g><g data-name="Group 701"><g data-name="Group 700" clip-path="url(#a)" fill="#fdca40"><path data-name="Path 2020" d="M623.181 40.563c.925 9.75 9.075 13.193 19.36 8.182L674 33.411l-31.459 21c-10.285 6.863-18.434 19.718-19.36 30.536l-2.832 33.094-2.83-29.83c-.927-9.75-9.076-13.195-19.36-8.182L566.7 95.359l31.459-20.994c10.283-6.863 18.433-19.718 19.36-30.536l2.831-33.094z"/><path data-name="Path 2021" d="M189.299 95.34c.321 3.378 3.145 4.572 6.708 2.835l10.9-5.313-10.9 7.275c-3.563 2.378-6.387 6.832-6.708 10.581l-.982 11.468-.98-10.335c-.321-3.378-3.145-4.571-6.709-2.835l-10.9 5.313 10.9-7.275c3.564-2.378 6.388-6.832 6.709-10.581l.98-11.468z"/><path data-name="Path 2022" d="M588.996 14.488c.279 2.944 2.74 3.984 5.846 2.471l9.5-4.629-9.5 6.338c-3.106 2.072-5.567 5.954-5.846 9.222l-.855 9.992-.855-9c-.279-2.944-2.74-3.984-5.846-2.471l-9.5 4.629 9.5-6.34c3.106-2.072 5.567-5.953 5.846-9.22l.855-9.993z"/><path data-name="Path 2023" d="M655.172 11.866c.068.711.661.962 1.411.6l2.294-1.118-2.294 1.531a3.3 3.3 0 0 0-1.411 2.226l-.206 2.414-.207-2.176c-.068-.71-.661-.961-1.411-.6l-2.294 1.118 2.294-1.531a3.3 3.3 0 0 0 1.411-2.226l.207-2.412z"/><path data-name="Path 2024" d="M164.748 83.271c.068.711.661.962 1.411.6l2.294-1.118-2.294 1.531a3.3 3.3 0 0 0-1.411 2.226l-.206 2.412-.207-2.174c-.066-.71-.661-.961-1.411-.6l-2.294 1.118 2.294-1.531a3.3 3.3 0 0 0 1.411-2.226l.207-2.412z"/><path data-name="Path 2025" d="M226.022 22.681c.7 7.416 6.9 10.034 14.723 6.223l23.93-11.661-23.93 15.967c-7.821 5.22-14.018 15-14.723 23.224l-2.153 25.165-2.154-22.678c-.7-7.414-6.9-10.034-14.724-6.223l-23.925 11.66 23.925-15.967c7.822-5.22 14.019-15 14.724-23.224l2.154-25.168z"/></g></g></svg>