<svg xmlns="http://www.w3.org/2000/svg" xml:space="preserve" viewBox="0 0 362.268 352.063"><g fill="#5638a5"><path d="M268.285 155.351c-6.31 3.88-13.689 4.86-20.89 5.94-3.71.56-7.44.98-11.18 1.26-1.079.08-2.19.1-3.27-.04-.28-.03-.53-.09-.71-.22-.99-.77 2.04-1.56 2.49-1.74 1.34-.51 2.69-.98 3.98-1.54 1.83-.79 3.851-2.42 1.49-3.8-4.88-2.88-13-1.5-18.29-1.04-6.62.59-13.23 1.281-19.849 1.96-13.191 1.35-26.431 2.611-39.71 2.66-5.581.02-11.131.14-16.731.03-14.26-.26-27.42.68-41.08-3.53-2.53-.77-5.42-2.419-4.82-4.81.2-.81.83-1.48 1.61-1.95 6.42-3.85 14.03-5.98 21.58-7.19a124.6 124.6 0 0 1 11.2-1.29c1.09-.08 2.19-.08 3.27.111.29.04.53.129.71.279.98.95-2.05 1.85-2.51 2.04-1.34.6-2.7 1.141-4 1.79-2.12 1.06-4.229 2.79-1.5 4.63 3.96 2.68 9.5 3.31 14.12 3.91 19.361 2.48 38.66.28 57.87-2.42 8.491-1.2 16.98-2.39 25.54-3.03 8.38-.619 16.82-1.619 25.241-.93 4.239.34 8.449 1.13 12.449 2.57 2.85 1.02 7.38 3.67 2.99 6.35m-51.96-33.66a8.193 8.193 0 0 0 5.15-5.15c.06-.18.22-.299.411-.299.189 0 .349.119.409.299a8.193 8.193 0 0 0 5.15 5.15.43.43 0 0 1 0 .82 8.194 8.194 0 0 0-5.15 5.151.43.43 0 0 1-.82 0 8.194 8.194 0 0 0-5.15-5.151.43.43 0 0 1 0-.82m13.521 10.15c.099.04.159.13.159.23 0 .11-.06.2-.159.23a4.62 4.62 0 0 0-2.901 2.901c-.03.099-.12.159-.23.159-.1 0-.19-.06-.23-.159a4.583 4.583 0 0 0-2.889-2.901.237.237 0 0 1-.171-.23c0-.1.07-.19.171-.23a4.57 4.57 0 0 0 2.889-2.889c.04-.101.13-.171.23-.171.11 0 .2.07.23.171a4.606 4.606 0 0 0 2.901 2.889m15.479 5.77a6.648 6.648 0 0 1-5.83-4.83c-6.76-23.57-28.47-40.82-54.21-40.82-.27 0-.54 0-.8.01-.27-.01-.53-.01-.81-.01-25.73 0-47.45 17.25-54.2 40.82a6.647 6.647 0 0 1-5.83 4.83c-34.2 2.98-57.089 8.41-57.089 14.61 0 6.42 24.5 12.01 60.669 14.91 2.04.16 3.79 1.47 4.6 3.361 8.6 20.119 28.58 34.219 51.85 34.219.28 0 .54 0 .81-.009.26.009.53.009.8.009 23.28 0 43.25-14.1 51.86-34.219.81-1.891 2.55-3.201 4.6-3.361 36.17-2.9 60.67-8.49 60.67-14.91 0-6.2-22.9-11.63-57.09-14.61M71.062 242.711v10.035c0 1.477 1.229 2.705 2.706 2.705h13.578a2.097 2.097 0 0 0 2.093-2.094v-.154c0-1.154-.94-2.094-2.093-2.094h-4.463a3.26 3.26 0 0 1-3.255-3.254v-.253a3.261 3.261 0 0 1 3.255-3.255h10.07a3.261 3.261 0 0 1 3.255 3.255v11.361a3.26 3.26 0 0 1-3.255 3.256H73.769c-5.21 0-9.475-4.266-9.475-9.475v-10.033c0-5.21 4.265-9.474 9.475-9.474h19.184a3.26 3.26 0 0 1 3.255 3.255v.26a3.26 3.26 0 0 1-3.255 3.255H73.769a2.73 2.73 0 0 0-2.707 2.704M99.022 233.179a3.175 3.175 0 0 1 2.813-1.619h20.931c5.377 0 9.778 4.402 9.778 9.785 0 5.375-4.401 9.777-9.778 9.777h-5.467c-.425 0-.793.212-1.006.582-.214.37-.214.793 0 1.162l1.612 2.793a3.188 3.188 0 0 1 0 3.256 3.182 3.182 0 0 1-2.821 1.629h-.291a3.18 3.18 0 0 1-2.821-1.629l-4.498-7.792-1.085-1.878a3.177 3.177 0 0 1 0-3.255 3.177 3.177 0 0 1 2.82-1.629h13.556c1.644 0 3.016-1.373 3.016-3.016 0-1.648-1.373-3.022-3.016-3.022h-20.789c-1.202 0-2.233-.601-2.829-1.648l-.143-.25c-.588-1.037-.584-2.217.018-3.246M134.017 262.22h-.287a3.183 3.183 0 0 1-2.822-1.63 3.178 3.178 0 0 1 0-3.258l11.965-20.722c1.24-2.144 3.365-3.371 5.842-3.371h.022c2.477 0 4.604 1.226 5.842 3.371l11.963 20.722a3.178 3.178 0 0 1 0 3.258 3.18 3.18 0 0 1-2.82 1.63h-.287a3.183 3.183 0 0 1-2.821-1.63l-10.879-18.836a1.137 1.137 0 0 0-1.009-.584 1.14 1.14 0 0 0-1.009.584l-10.878 18.836a3.184 3.184 0 0 1-2.822 1.63M180.945 252.026c.213.371.58.583 1.009.583.428 0 .796-.212 1.01-.583l10.878-18.836a3.183 3.183 0 0 1 2.821-1.63h.287c1.196 0 2.223.594 2.821 1.63a3.183 3.183 0 0 1 0 3.258l-11.965 20.723c-1.239 2.144-3.366 3.374-5.841 3.374h-.022c-2.477 0-4.604-1.228-5.843-3.374l-11.965-20.723a3.183 3.183 0 0 1 0-3.258 3.186 3.186 0 0 1 2.824-1.63h.286c1.195 0 2.222.594 2.821 1.63l10.879 18.836ZM206.49 262.219h-.258a3.261 3.261 0 0 1-3.255-3.256v-22.471a3.26 3.26 0 0 1 3.255-3.254h.258a3.261 3.261 0 0 1 3.256 3.254v22.471a3.261 3.261 0 0 1-3.256 3.256M245.311 234.815v.26a3.262 3.262 0 0 1-3.256 3.256h-8.665c-.64 0-1.162.521-1.162 1.162v17.794a3.263 3.263 0 0 1-3.255 3.256h-.253a3.261 3.261 0 0 1-3.255-3.256v-17.795c0-.64-.522-1.162-1.162-1.162h-8.667a3.263 3.263 0 0 1-3.255-3.256v-.259a3.262 3.262 0 0 1 3.255-3.255h26.419a3.263 3.263 0 0 1 3.256 3.255M244.694 262.22h-.287a3.183 3.183 0 0 1-2.822-1.63 3.178 3.178 0 0 1 0-3.258l11.965-20.722c1.24-2.144 3.365-3.371 5.842-3.371h.022c2.477 0 4.604 1.226 5.842 3.371l11.963 20.722a3.178 3.178 0 0 1 0 3.258 3.18 3.18 0 0 1-2.82 1.63h-.287a3.183 3.183 0 0 1-2.821-1.63l-10.879-18.836a1.137 1.137 0 0 0-1.009-.584 1.14 1.14 0 0 0-1.009.584l-10.878 18.836a3.184 3.184 0 0 1-2.822 1.63M306.692 257.122a3.18 3.18 0 0 1-.001 3.253l-.126.218a3.179 3.179 0 0 1-2.818 1.627h-20.025a3.261 3.261 0 0 1-3.255-3.256v-22.471a3.261 3.261 0 0 1 3.255-3.255h.258a3.262 3.262 0 0 1 3.257 3.255v17.799c0 .64.519 1.16 1.159 1.162l15.484.038c1.195.003 2.218.596 2.812 1.63"/></g></svg>